<svg xmlns="http://www.w3.org/2000/svg" width="1500" height="1500" viewBox="-447.43 -439.69 1500 1500">
  <g fill="none" fill-rule="evenodd" transform="translate(-450.07 -443.75)">
    <circle cx="750.5" cy="750.5" r="701.5" fill="#FFF"/>
    <g fill="#FFF">
      <g transform="translate(110 104)">
        <circle cx="646" cy="646" r="621" stroke="#124F98" stroke-width="50"/>
        <circle cx="628" cy="628" r="628"/>
      </g>
      <g transform="translate(110 161)">
        <circle cx="591" cy="591" r="566" stroke="#124F98" stroke-width="50"/>
        <circle cx="573" cy="573" r="573"/>
      </g>
      <g transform="translate(101 207)">
        <ellipse cx="540.5" cy="542.5" stroke="#124F98" stroke-width="50" rx="515.5" ry="517.5"/>
        <ellipse cx="522.5" cy="524.5" rx="522.5" ry="524.5"/>
      </g>
      <g transform="translate(98 270)">
        <circle cx="487.5" cy="487.5" r="462.5" stroke="#124F98" stroke-width="50"/>
        <circle cx="469.5" cy="469.5" r="469.5"/>
      </g>
      <g transform="translate(99 337)">
        <circle cx="432.5" cy="432.5" r="407.5" stroke="#124F98" stroke-width="50"/>
        <circle cx="414.5" cy="414.5" r="414.5"/>
      </g>
    </g>
    <path fill="#124F98" d="M440.14 1304.85c61.14 25.48 93.55 36.14 97.25 31.98 3.4-3.84 1.97-9.84-41.4-41.2-2.44-1.76-12.45-8.37-30.03-19.83L364.9 1217l-36.12 1.77 111.35 86.08Z"/>
    <path fill="#FFF" d="M424.25 1274.12c27.85 17.8 58.6 33.06 92.3 45.77 33.68 12.7 52.18 17.78 55.52 15.23l1.18-4.7c6.31 1.86-12-4.27-54.95-18.39-42.95-14.11-74.3-26.75-94.05-37.91ZM867 705h471v198H867z"/>
    <path fill="#124F98" fill-rule="nonzero" d="m162.5 899.86-.5-299a25 25 0 0 1 24.97-25.04 25 25 0 0 1 .04 0h101.64a25 25 0 0 1 24 17.98l26.66 91.17c2.65 9.37 5.76 20.8 9.35 34.31 3.58 13.51 7.28 27.68 11.1 42.52a2231.38 2231.38 0 0 1 18.36 76.82H353.1c2.03-9.37 4.64-20.8 7.83-34.31 3.2-13.5 6.67-27.68 10.4-42.51 3.75-14.84 7.37-29 10.88-42.52 3.5-13.5 6.58-24.94 9.23-34.31l25.72-90.95a25 25 0 0 1 24.06-18.2h101.75a25 25 0 0 1 25 25v299a25 25 0 0 1-25 25h-45.4a25 25 0 0 1-25-25V789.9c0-7.96.2-18.27.59-30.91l1.28-41.46c.47-15 .9-30.18 1.29-45.56.39-15.38.58-29.79.58-43.22h11a3869.66 3869.66 0 0 1-10.76 42.99l-11.57 45.2a3031.7 3031.7 0 0 1-10.88 41.34c-3.43 12.65-6.39 23.2-8.88 31.62L410.12 907a25 25 0 0 1-23.95 17.82h-41.45a25 25 0 0 1-23.9-17.7L285.05 789.9a2925.7 2925.7 0 0 1-9.12-31.62 2089.21 2089.21 0 0 1-11.22-41.34l-11.8-45.2a8311.91 8311.91 0 0 1-11.11-42.99h12.4c0 13.43.19 27.84.58 43.22.39 15.38.81 30.57 1.28 45.56l1.29 41.46c.39 12.64.58 22.95.58 30.91l-.47 110.03a25 25 0 0 1-25 24.89H187.5a25 25 0 0 1-25-24.96Z"/>
    <g transform="translate(1106.97 637)">
      <mask id="a" fill="#fff">
        <path d="M.03 0h231v336H.03z"/>
      </mask>
      <path fill="#124F98" fill-rule="nonzero" stroke="#FFF" stroke-width="20" d="M113.34 39.82c24.44 0 45.37 3.57 62.85 10.52 18.33 7.28 32.45 17.67 42.52 30.94 12.1 15.96 17.56 35.5 16.04 58.73h-48.23l-115.08.12c13.93 4.4 140.38 10.2 148.57 17.22l.44.39C234 169.57 241 185.54 241 205.9c0 18.4-5.38 34.6-16.04 48.63-10.34 13.6-24.81 24.36-43.6 32.08-18.03 7.42-39.11 11.2-63.27 11.2-23.94 0-45-3.6-63.21-10.7-18.9-7.35-33.84-17.75-44.98-31.02-13.7-16.34-20.5-35.82-20.34-58.47H49.3l135.42.37c-13.05-4.6-159.63-11.46-168-19.34l-.48-.46C2.32 164.85-4.83 147.55-4.83 126.13c0-18 5-33.51 14.82-46.62 9.58-12.81 23.34-22.82 41.5-29.76 17.15-6.56 37.75-9.93 61.85-9.93ZM75.42 199.96l19.61 7.46a15.04 15.04 0 0 0 5.76 8.76c4 3.07 9.42 4.3 16 4.3 6.28 0 11.27-.7 14.77-2.68a5.16 5.16 0 0 0 1.84-1.46c.1-.16.11-.34.11-.53 0-.53-1.01-.47-1.3-.64-3.42-2-8.72-3.4-15.75-4.58l-21.5-3.47-19.54-7.16Zm41.37-83.23c-5.93 0-10.63.64-13.85 2.67-.85.53-2 .97-2 2 0 .54.78.66 1.15.9 2.72 1.88 6.66 3.04 11.63 3.9l22.8 3.83v-.17c-.18-3.36-1.84-6.1-4.66-8.4l-.23-.18c-4-3.15-9-4.55-14.84-4.55Z" mask="url(#a)"/>
    </g>
    <path fill="#124F98" fill-rule="nonzero" stroke="#FFF" stroke-width="20" d="M974.31 676.82c24.44 0 45.37 3.57 62.85 10.51 18.33 7.3 32.44 17.68 42.52 30.95 12.1 15.96 17.55 35.5 16.04 58.74h-48.23l-122.5-1.12c13.93 4.4 147.8 11.42 155.98 18.45l.45.38c13.53 11.84 20.55 27.82 20.55 48.17 0 18.4-5.38 34.6-16.05 48.63-10.33 13.6-24.8 24.36-43.6 32.08-18.03 7.42-39.1 11.2-63.27 11.2-23.94 0-45-3.6-63.2-10.7-18.9-7.35-33.85-17.75-44.98-31.02-13.71-16.34-20.51-35.82-20.35-58.47h59.75l84.9-.16c-13.05-4.61-109.1-10.93-117.48-18.81l-.48-.46c-13.93-13.35-21.07-30.64-21.07-52.06 0-18 5-33.51 14.81-46.62 9.58-12.81 23.35-22.82 41.5-29.76 17.15-6.56 37.76-9.93 61.86-9.93Zm-38.5 160.34 20.19 7.26a15.05 15.05 0 0 0 5.75 8.76c4.01 3.07 9.43 4.3 16 4.3 6.29 0 11.28-.7 14.78-2.68a5.15 5.15 0 0 0 1.84-1.46c.1-.16.1-.34.1-.52 0-.54-1.01-.48-1.3-.65-3.41-2-8.71-3.4-15.74-4.58l-21.5-3.47-20.12-6.96Zm41.95-83.43c-5.93 0-10.64.64-13.85 2.67-.85.53-2.01.97-2.01 2 0 .54.79.66 1.15.9 2.73 1.88 6.66 3.04 11.64 3.9l22.8 3.83v-.17c-.19-3.36-1.85-6.1-4.66-8.4l-.24-.18c-4-3.15-9-4.55-14.83-4.55Z"/>
    <path fill="#124F98" fill-rule="nonzero" d="M979.05 924.82c-22.55 0-42.41-3.34-59.58-10.03s-30.81-16.06-40.94-28.13c-10.13-12.07-15.98-26.08-17.56-42.04h84.9c1 6.76 4.27 12.26 9.8 16.5 5.53 4.23 12.9 6.35 22.09 6.35 8.47 0 15.05-1.32 19.72-3.98 4.66-2.66 7-6.22 7-10.67 0-3.74-2.08-6.83-6.25-9.27-4.17-2.45-10.56-4.39-19.18-5.83l-42.66-6.9c-22.85-3.73-40.26-11.35-52.26-22.85-12-11.5-18-26.44-18-44.84 0-15.66 4.28-29.2 12.83-40.63 8.55-11.43 20.9-20.23 37.06-26.41 16.16-6.18 35.6-9.27 58.3-9.27 22.98 0 42.7 3.27 59.14 9.8 16.45 6.55 29.2 15.78 38.25 27.71 9.05 11.93 13.8 26.16 14.22 42.68h-78.43c-.15-6.6-3.06-12.14-8.73-16.6-5.68-4.45-12.68-6.68-21.01-6.68-8.33 0-14.73 1.4-19.18 4.2-4.45 2.8-6.68 6.3-6.68 10.46 0 3.6 1.83 6.65 5.5 9.16 3.66 2.52 8.87 4.35 15.62 5.5l48.7 8.2c23.99 4.02 41.7 11.02 53.11 21.01 11.43 9.99 17.14 23.54 17.14 40.64 0 16.1-4.67 30.29-14.01 42.58-9.34 12.28-22.48 21.91-39.43 28.88-16.96 6.97-36.78 10.46-59.48 10.46Zm246 0c-22.55 0-42.41-3.34-59.58-10.03-17.17-6.68-30.81-16.06-40.94-28.13-10.13-12.07-15.98-26.08-17.56-42.04h84.9c1 6.76 4.27 12.26 9.8 16.5 5.53 4.23 12.9 6.35 22.09 6.35 8.47 0 15.05-1.32 19.72-3.98 4.66-2.66 7-6.22 7-10.67 0-3.74-2.08-6.83-6.25-9.27-4.17-2.45-10.56-4.39-19.18-5.83l-42.66-6.9c-22.85-3.73-40.26-11.35-52.26-22.85-12-11.5-18-26.44-18-44.84 0-15.66 4.28-29.2 12.83-40.63 8.55-11.43 20.9-20.23 37.06-26.41 16.16-6.18 35.6-9.27 58.3-9.27 22.98 0 42.7 3.27 59.14 9.8 16.45 6.55 29.2 15.78 38.25 27.71 9.05 11.93 13.8 26.16 14.22 42.68h-78.43c-.15-6.6-3.06-12.14-8.73-16.6-5.68-4.45-12.68-6.68-21.01-6.68-8.33 0-14.73 1.4-19.18 4.2-4.45 2.8-6.68 6.3-6.68 10.46 0 3.6 1.83 6.65 5.5 9.16 3.66 2.52 8.87 4.35 15.62 5.5l48.7 8.2c23.99 4.02 41.7 11.02 53.11 21.01 11.43 9.99 17.14 23.54 17.14 40.64 0 16.1-4.67 30.29-14.01 42.58-9.34 12.28-22.48 21.91-39.43 28.88-16.96 6.97-36.78 10.46-59.48 10.46Zm-498.36 0c-23.53 0-44.4-5.07-62.62-15.2s-32.46-24.18-42.72-42.15c-10.26-17.96-15.38-38.51-15.38-61.65 0-23.28 5.09-43.87 15.27-61.76s24.21-31.91 42.07-42.04c17.86-10.14 38.42-15.2 61.66-15.2 17.5 0 33.5 2.84 47.98 8.51a110.78 110.78 0 0 1 37.66 24.15 108.8 108.8 0 0 1 24.64 36.97c5.81 14.23 8.72 29.9 8.72 47v23.06H631.36v-48.29H804.8l-39.6 8.41c0-8.05-1.5-14.9-4.51-20.59A31 31 0 0 0 747.78 753c-5.6-3.02-12.41-4.53-20.45-4.53-7.89 0-14.67 1.51-20.33 4.53a30.84 30.84 0 0 0-13.02 13.04c-3.01 5.68-4.52 12.54-4.52 20.6v38.15c0 8.34 1.61 15.52 4.84 21.56a32.44 32.44 0 0 0 13.99 13.8c6.1 3.16 13.38 4.74 21.84 4.74 6.17 0 11.73-.8 16.68-2.37a35.9 35.9 0 0 0 12.59-6.8 26.22 26.22 0 0 0 7.53-10.45h76.17c-2.72 15.52-9.54 29.25-20.44 41.18-10.9 11.92-24.64 21.3-41.2 28.13-16.58 6.83-34.83 10.24-54.77 10.24Z"/>
    <path fill="#FFF" d="m59.15 731.5 55 3c-17.52 60.09-4.46 143.24 39.2 249.46 43.66 106.21 15.56 78.4-84.3-83.45L93 852 59.15 731.5Z"/>
  </g>
</svg>
